<?xml version="1.0"?>
<svg xmlns="http://www.w3.org/2000/svg" width="512" height="512" viewBox="0 0 512 512"><g><g><g><circle cx="96" cy="376" r="80" fill="#d80027"/><circle cx="96" cy="349.333" r="21.333" fill="#ffeb99"/><path d="M108.993,366.26a32,32,0,0,1,24.34,31.073V408H58.667V397.333a32,32,0,0,1,24.34-31.073" fill="#ffda44"/></g><g><circle cx="416" cy="376" r="80" fill="#d80027"/><circle cx="416" cy="349.333" r="21.333" fill="#ffeb99"/><path d="M428.993,366.26a32,32,0,0,1,24.34,31.073V408H378.667V397.333a32,32,0,0,1,24.34-31.073" fill="#ffda44"/></g><path d="M336,160V128H309.668a55.685,55.685,0,0,0-4.4-10.641l18.614-18.614L301.255,76.118,282.641,94.732A55.685,55.685,0,0,0,272,90.332V64H240V90.332a55.685,55.685,0,0,0-10.641,4.4L210.745,76.118,188.118,98.745l18.614,18.614a55.685,55.685,0,0,0-4.4,10.641H176v32h26.332a55.685,55.685,0,0,0,4.4,10.641l-18.614,18.614,22.627,22.627,18.614-18.614a55.685,55.685,0,0,0,10.641,4.4V224h32V197.668a55.685,55.685,0,0,0,10.641-4.4l18.614,18.614,22.627-22.627-18.614-18.614a55.685,55.685,0,0,0,4.4-10.641Z" fill="#57565c"/><circle cx="256" cy="144" r="16" fill="#e0e0e2"/></g><g><path d="M424,288.37V144a8,8,0,0,0-8-8H344v-8a8,8,0,0,0-8-8H315.34c-.14-.33-.27-.66-.41-.99l14.61-14.61a8,8,0,0,0,0-11.31L306.91,70.46a8,8,0,0,0-11.31,0L280.99,85.07c-.33-.14-.66-.27-.99-.41V64a8,8,0,0,0-8-8H240a8,8,0,0,0-8,8V84.66c-.33.14-.66.27-.99.41L216.4,70.46a8,8,0,0,0-11.31,0L182.46,93.09a8,8,0,0,0,0,11.31l14.61,14.61c-.14.33-.27.66-.41.99H176a8,8,0,0,0-8,8v8H96a8,8,0,0,0-8,8V288.37a88,88,0,1,0,16,0V152h64v8a8,8,0,0,0,8,8h20.66c.14.33.27.66.41.99L182.46,183.6a8,8,0,0,0,0,11.31l22.63,22.63a8,8,0,0,0,11.31,0l14.61-14.61c.33.14.66.27.99.41V224a8,8,0,0,0,8,8h32a8,8,0,0,0,8-8V203.34c.33-.14.66-.27.99-.41l14.61,14.61a8,8,0,0,0,11.31,0l22.63-22.63a8,8,0,0,0,0-11.31l-14.61-14.61c.14-.33.27-.66.41-.99H336a8,8,0,0,0,8-8v-8h64V288.37a88,88,0,1,0,16,0ZM168,376a72,72,0,1,1-72-72A72.083,72.083,0,0,1,168,376ZM328,152H309.67a8.007,8.007,0,0,0-7.67,5.72,47.36,47.36,0,0,1-3.77,9.11,8.021,8.021,0,0,0,1.38,9.47l12.96,12.95-11.32,11.32L288.3,187.61a8.021,8.021,0,0,0-9.47-1.38,47.36,47.36,0,0,1-9.11,3.77,8.007,8.007,0,0,0-5.72,7.67V216H248V197.67a8.007,8.007,0,0,0-5.72-7.67,47.36,47.36,0,0,1-9.11-3.77,8.021,8.021,0,0,0-9.47,1.38l-12.95,12.96-11.32-11.32,12.96-12.95a8.021,8.021,0,0,0,1.38-9.47,47.36,47.36,0,0,1-3.77-9.11,8.007,8.007,0,0,0-7.67-5.72H184V136h18.33a8.007,8.007,0,0,0,7.67-5.72,47.36,47.36,0,0,1,3.77-9.11,8.021,8.021,0,0,0-1.38-9.47L199.43,98.75l11.32-11.32,12.95,12.96a8.021,8.021,0,0,0,9.47,1.38A47.36,47.36,0,0,1,242.28,98,8.007,8.007,0,0,0,248,90.33V72h16V90.33A8.007,8.007,0,0,0,269.72,98a47.36,47.36,0,0,1,9.11,3.77,8.021,8.021,0,0,0,9.47-1.38l12.95-12.96,11.32,11.32L299.61,111.7a8.021,8.021,0,0,0-1.38,9.47,47.36,47.36,0,0,1,3.77,9.11,8.007,8.007,0,0,0,7.67,5.72H328Zm88,296a72,72,0,1,1,72-72A72.083,72.083,0,0,1,416,448Z"/><path d="M121.93,363.02a29.33,29.33,0,1,0-51.86,0,39.89,39.89,0,0,0-19.4,34.31V408a8,8,0,0,0,8,8h74.66a8,8,0,0,0,8-8V397.33A39.89,39.89,0,0,0,121.93,363.02ZM96,336a13.335,13.335,0,1,1-13.33,13.33A13.345,13.345,0,0,1,96,336Zm29.33,64H66.67v-2.67a23.919,23.919,0,0,1,15.18-22.31,29.253,29.253,0,0,0,28.3,0,23.919,23.919,0,0,1,15.18,22.31Z"/><path d="M441.93,363.02a29.33,29.33,0,1,0-51.86,0,39.89,39.89,0,0,0-19.4,34.31V408a8,8,0,0,0,8,8h74.66a8,8,0,0,0,8-8V397.33A39.89,39.89,0,0,0,441.93,363.02ZM416,336a13.335,13.335,0,1,1-13.33,13.33A13.345,13.345,0,0,1,416,336Zm29.33,64H386.67v-2.67a23.919,23.919,0,0,1,15.18-22.31,29.253,29.253,0,0,0,28.3,0,23.919,23.919,0,0,1,15.18,22.31Z"/><path d="M256,120a24,24,0,1,0,24,24A24.027,24.027,0,0,0,256,120Zm0,32a8,8,0,1,1,8-8A8.009,8.009,0,0,1,256,152Z"/></g></g></svg>
