<svg height="512pt" viewBox="-32 0 512 512" width="512pt" xmlns="http://www.w3.org/2000/svg"><path d="m17.398438 112c-6.796876 0-12.398438 5.601562-12.398438 12.398438v346.203124c0 19.597657 15.800781 35.398438 35.398438 35.398438 19.601562 0 35.402343-15.800781 35.402343-35.398438v-358.601562zm0 0" fill="#e9e9ea"/><path d="m384.199219 54.800781-294.597657-1c-7.601562 0-13.601562 6-13.800781 13.597657v403c0 19.601562-15.800781 35.402343-35.402343 35.402343l320.800781 1.199219c19.601562 0 35.402343-15.800781 35.402343-35.398438v-404.402343c0-6.800781-5.601562-12.398438-12.402343-12.398438zm0 0" fill="#e9e9ea"/><path d="m127 97h218.800781c4.199219 0 7.597657 3.398438 7.597657 7.601562v176.796876c0 4.203124-3.398438 7.601562-7.597657 7.601562h-218.800781c-4.199219 0-7.601562-3.398438-7.601562-7.601562v-176.796876c0-4.203124 3.402343-7.601562 7.601562-7.601562zm0 0" fill="#55acd5"/><path d="m353.398438 281.398438v-20.398438h-68.199219c-3.597657 0-7 1.601562-9.398438 4.398438l-19.800781 23.601562h89.800781c4.199219 0 7.597657-3.398438 7.597657-7.601562zm0 0" fill="#6dcc6d"/><path d="m273.601562 172.199219c-.800781 0-1.601562 0-2.402343.199219v2.402343 24.800781 2.398438c8.199219 1.398438 16-4.199219 17.199219-12.398438 1.402343-8.203124-4.199219-16-12.398438-17.203124-.601562-.199219-1.398438-.199219-2.398438-.199219zm0 0" fill="#f9d0b4"/><path d="m199.398438 199.601562v-24.800781c0-.800781 0-1.601562 0-2.402343-8.199219-1.398438-16 4.203124-17.398438 12.402343s4.199219 16 12.398438 17.398438c1.601562.199219 3.402343.199219 5 0 0-1 0-1.800781 0-2.597657zm0 0" fill="#f9d0b4"/><path d="m240.800781 155.800781c-13.199219 16.597657-32.601562 14.199219-39.199219 12.800781-1-.203124-2 .398438-2.203124 1.398438v.398438 29c0 19.800781 16.203124 36 36 36 19.800781 0 36-16.199219 36-36v-32c0-.199219 0-.398438 0-.597657 0-1-.796876-1.800781-1.796876-1.800781-15-.398438-22.800781-6.398438-25.800781-9.398438-1-.601562-2.199219-.601562-3 .199219zm0 0" fill="#f9d0b4"/><path d="m197 172.199219c.800781 0 1.601562 0 2.398438.199219v-1.796876c0-1 .800781-2 2-2h.402343c6.597657 1.398438 26 3.796876 39.199219-12.800781.601562-.800781 1.800781-1 2.800781-.402343 0 0 .199219 0 .199219.203124 3 3 11 9 25.800781 9.398438 1 0 1.800781.800781 1.800781 1.800781v.597657 4.800781c4.597657-.800781 9.398438.800781 12.796876 4v-27c0-11.398438-9.199219-20.597657-20.597657-20.597657-3.800781 0-7.402343 1-10.601562 3-3.800781-6.203124-10.398438-10-17.597657-10h-10.601562c-20.601562 0-37.199219 16.597657-37.199219 37.199219v16.597657c2.398438-2.199219 5.800781-3.199219 9.199219-3.199219zm0 0" fill="#6d6c6b"/><path d="m235.398438 235.601562c-5.597657 0-11-1.402343-16-3.800781v13.398438l5.601562 16.402343c.398438 1 1.199219 1.597657 2.199219 1.597657h17.402343c1 0 2-.597657 2.199219-1.597657l5.597657-16.402343v-13.800781c-5.199219 2.800781-11 4.203124-17 4.203124zm0 0" fill="#f9d0b4"/><path d="m285.199219 261h13.800781c-.601562-.199219-1-.398438-1.601562-.601562l-28-7-16.796876-8.398438-5.601562 16.398438c-.398438 1-1.199219 1.601562-2.199219 1.601562h-17.402343c-1 0-2-.601562-2.199219-1.601562l-5.597657-16.398438-16.800781 8.398438-28 7c-6 1.601562-10.402343 6.800781-10.800781 13l-.800781 15.601562h93l19.800781-23.601562c2-2.796876 5.398438-4.398438 9.199219-4.398438zm0 0" fill="#e9e9ea"/><path d="m98.398438 8.601562h-3.597657v-3.601562c0-2.800781-2.199219-5-5-5s-5 2.199219-5 5v3.601562h-3.601562c-2.800781 0-5 2.199219-5 5 0 2.796876 2.199219 5 5 5h3.601562v3.597657c0 2.800781 2.199219 5 5 5s5-2.199219 5-5v-3.597657h3.597657c2.800781 0 5-2.203124 5-5 0-2.800781-2.199219-5-5-5zm0 0" fill="#6dcc6d"/><path d="m41 48c0-.398438-.199219-.601562-.199219-1-.199219-.199219-.199219-.601562-.402343-.800781-.199219-.199219-.398438-.597657-.597657-.800781-2-1.796876-5-1.796876-7 0-.199219.203124-.402343.402343-.601562.800781-.398438.601562-.597657 1.199219-.800781 1.800781-.199219.601562-.199219 1.398438 0 2 0 .398438.203124.601562.203124 1 .199219.398438.199219.601562.398438.800781s.398438.597657.601562.800781c2 2 5 2 7 0 .199219-.203124.398438-.402343.597657-.800781.199219-.199219.402343-.601562.402343-.800781.199219-.199219.199219-.601562.199219-1 .199219-.800781.199219-1.398438.199219-2zm0 0" fill="#55acd5"/><path d="m429 402c0-.398438-.199219-.601562-.199219-1-.199219-.199219-.199219-.601562-.402343-.800781-.199219-.199219-.398438-.597657-.597657-.800781-2-1.796876-5-1.796876-7 0-.199219.203124-.402343.402343-.601562.800781-.398438.601562-.597657 1.199219-.800781 1.800781-.199219.601562-.199219 1.398438 0 2 0 .398438.203124.601562.203124 1 .199219.398438.199219.601562.398438.800781s.398438.597657.601562.800781c2 2 5 2 7 0 .199219-.203124.398438-.402343.597657-.800781.199219-.199219.402343-.601562.402343-.800781.199219-.199219.199219-.601562.199219-1 .199219-.800781.199219-1.398438.199219-2zm0 0" fill="#ea4647"/><path d="m448.601562 348.199219c-6.601562-1.199219-11.800781-6.398438-13.203124-13.199219 0-.199219-.199219-.199219-.398438-.199219s-.199219.199219-.199219.199219c-1.199219 6.601562-6.402343 11.800781-13.199219 13.199219-.203124 0-.203124.199219-.203124.402343 0 .199219.203124.199219.203124.199219 6.597657 1.199219 11.796876 6.398438 13.199219 13.199219 0 .199219.199219.199219.398438.199219s.199219-.199219.199219-.199219c1.203124-6.601562 6.402343-11.800781 13.203124-13.199219.199219 0 .199219-.199219.199219-.402343 0-.199219-.199219-.199219-.199219-.199219zm0 0" fill="#ffcd29"/><path d="m40.398438 510.800781c-22.398438 0-40.398438-18-40.398438-40.402343v-346c0-9.597657 7.800781-17.398438 17.398438-17.398438h58.402343c2.800781 0 5 2.199219 5 5v358.398438c0 22.402343-18.199219 40.402343-40.402343 40.402343zm-23-393.800781c-4 0-7.398438 3.398438-7.398438 7.398438v346.203124c.398438 16.796876 14.398438 30 31 29.597657 16.199219-.398438 29.398438-13.398438 29.601562-29.597657v-353.601562zm0 0"/><path d="m361.199219 512-320.800781-1.199219c-2.796876 0-5-2.199219-5-5s2.203124-5 5-5c16.800781 0 30.402343-13.601562 30.402343-30.402343v-403c0-10.398438 8.398438-18.597657 18.597657-18.597657l294.800781 1c9.601562 0 17.199219 7.800781 17.402343 17.398438v404.402343c0 22.199219-18.203124 40.398438-40.402343 40.398438zm-294.398438-11 294.398438 1c16.800781 0 30.402343-13.601562 30.402343-30.398438v-404.402343c0-4-3.203124-7.398438-7.402343-7.398438l-294.800781-1c-2.398438 0-4.597657.800781-6.199219 2.597657-1.597657 1.601562-2.597657 3.800781-2.597657 6.203124v403c.199219 11.597657-4.800781 22.597657-13.800781 30.398438zm0 0"/><g fill="#231f20"><path d="m221.601562 349.398438h-102c-2.800781 0-5-2.199219-5-5 0-2.796876 2.199219-5 5-5h102c2.796876 0 5 2.203124 5 5 0 2.800781-2.203124 5-5 5zm0 0"/><path d="m221.601562 321.800781h-102c-2.800781 0-5-2.199219-5-5s2.199219-5 5-5h102c2.796876 0 5 2.199219 5 5s-2.203124 5-5 5zm0 0"/><path d="m221.601562 459.601562h-102c-2.800781 0-5-2.203124-5-5 0-2.800781 2.199219-5 5-5h102c2.796876 0 5 2.199219 5 5 0 2.796876-2.203124 5-5 5zm0 0"/><path d="m221.601562 432h-102c-2.800781 0-5-2.199219-5-5s2.199219-5 5-5h102c2.796876 0 5 2.199219 5 5s-2.203124 5-5 5zm0 0"/><path d="m221.601562 404.601562h-102c-2.800781 0-5-2.203124-5-5 0-2.800781 2.199219-5 5-5h102c2.796876 0 5 2.199219 5 5 0 2.796876-2.203124 5-5 5zm0 0"/><path d="m221.601562 377h-102c-2.800781 0-5-2.199219-5-5s2.199219-5 5-5h102c2.796876 0 5 2.199219 5 5s-2.203124 5-5 5zm0 0"/><path d="m353.601562 349.398438h-102c-2.800781 0-5-2.199219-5-5 0-2.796876 2.199219-5 5-5h102c2.796876 0 5 2.203124 5 5 0 2.800781-2.203124 5-5 5zm0 0"/><path d="m353.601562 321.800781h-102c-2.800781 0-5-2.199219-5-5s2.199219-5 5-5h102c2.796876 0 5 2.199219 5 5s-2.203124 5-5 5zm0 0"/><path d="m353.601562 459.601562h-102c-2.800781 0-5-2.203124-5-5 0-2.800781 2.199219-5 5-5h102c2.796876 0 5 2.199219 5 5 0 2.796876-2.203124 5-5 5zm0 0"/><path d="m353.601562 432h-102c-2.800781 0-5-2.199219-5-5s2.199219-5 5-5h102c2.796876 0 5 2.199219 5 5s-2.203124 5-5 5zm0 0"/><path d="m353.601562 404.601562h-102c-2.800781 0-5-2.203124-5-5 0-2.800781 2.199219-5 5-5h102c2.796876 0 5 2.199219 5 5 0 2.796876-2.203124 5-5 5zm0 0"/><path d="m353.601562 377h-102c-2.800781 0-5-2.199219-5-5s2.199219-5 5-5h102c2.796876 0 5 2.199219 5 5s-2.203124 5-5 5zm0 0"/><path d="m345.800781 294h-218.800781c-7 0-12.601562-5.601562-12.601562-12.601562v-176.796876c0-7 5.601562-12.601562 12.601562-12.601562h218.800781c7 0 12.597657 5.601562 12.597657 12.601562v176.796876c0 7-5.597657 12.601562-12.597657 12.601562zm-218.800781-192c-1.398438 0-2.601562 1.199219-2.601562 2.601562v176.796876c0 1.402343 1.203124 2.601562 2.601562 2.601562h218.800781c1.398438 0 2.597657-1.199219 2.597657-2.601562v-176.796876c0-1.402343-1.199219-2.601562-2.597657-2.601562zm0 0"/><path d="m345.800781 294h-89.800781c-2.800781 0-5-2.199219-5-5 0-1.199219.398438-2.398438 1.199219-3.199219l19.800781-23.601562c3.199219-4 8.199219-6.199219 13.199219-6.199219h68.199219c2.800781 0 5 2.199219 5 5v20.398438c0 7-5.597657 12.601562-12.597657 12.601562zm-79.199219-10h79.199219c1.398438 0 2.597657-1.199219 2.597657-2.601562v-15.398438h-63.199219c-2.199219 0-4.199219 1-5.597657 2.601562zm0 0"/><path d="m273.601562 207.199219c-1 0-2.203124 0-3.203124-.199219-2.597657-.398438-4.398438-2.601562-4.199219-5.199219 0-.601562 0-1.402343 0-2v-25c0-.800781 0-1.402343 0-2-.199219-2.601562 1.601562-4.800781 4.199219-5.199219 11-1.800781 21.203124 5.597657 23 16.597657 1.800781 11-5.597657 21.199219-16.597657 23-1 0-2 0-3.199219 0zm2.796876-29.800781v19.402343c5.402343-1.402343 8.402343-7 7-12.402343-1-3.398438-3.597657-6-7-7zm0 0"/><path d="m197 207.199219c-11 0-20-9-20-20s9-20 20-20c1 0 2.199219 0 3.199219.199219 2.601562.402343 4.402343 2.800781 4.199219 5.203124v2 24.796876 2c.203124 2.601562-1.597657 4.800781-4.199219 5.203124-1 .597657-2.199219.597657-3.199219.597657zm-2.601562-29.800781c-5.398438 1.402343-8.398438 7-7 12.402343 1 3.398438 3.601562 6 7 7zm0 0"/><path d="m235.398438 240.601562c-22.597657 0-41-18.402343-41-41v-29c0-3.800781 3-7 7-7 .402343 0 1 0 1.402343.199219 6.597657 1.398438 23 3 34.199219-11 2.398438-3 6.800781-3.601562 9.800781-1.199219.199219.199219.398438.398438.597657.398438 2.203124 2.199219 9 7.601562 22.601562 8 3.601562.199219 6.601562 3.199219 6.800781 6.800781v32.597657c-.402343 22.800781-18.800781 41.203124-41.402343 41.203124zm-31-66.402343v25.402343c0 17.199219 13.800781 31 31 31 17.203124 0 31-13.800781 31-31v-29.800781c-8.597657-.402343-16.796876-3.402343-23.796876-8.402343-12.800781 13.800781-29.601562 14-38.203124 12.800781zm40.203124-15.199219"/><path d="m284.199219 181.398438c-1.199219 0-2.597657-.597657-3.398438-1.398438-2.199219-2.199219-5.402343-3.199219-8.601562-2.601562-2.800781.402343-5.199219-1.398438-5.800781-4.199219 0-.199219 0-.597657 0-.800781v-2.398438c-8.597657-.398438-16.796876-3.398438-23.796876-8.398438-13 14-30.203124 14-38.601562 12.796876-.800781 2.203124-3.199219 3.402343-5.398438 3-2.800781-.398438-5.601562.203124-7.800781 2-2.199219 1.800781-5.402343 1.402343-7-.796876-.800781-.800781-1-2-1-3.203124v-16.597657c0-23.199219 19-42.199219 42.199219-42.199219h10.601562c7.398438 0 14.398438 3.199219 19.199219 8.796876 2.800781-1 5.800781-1.597657 9-1.597657 14.199219 0 25.597657 11.398438 25.597657 25.597657v27c-.199219 2.601562-2.597657 5-5.199219 5zm-7.800781-14.199219c1 .199219 1.800781.402343 2.800781.601562v-18.601562c0-8.597657-6.800781-15.597657-15.398438-15.597657-2.800781 0-5.601562.796876-8 2.199219-2.402343 1.398438-5.402343.597657-6.800781-1.800781-2.800781-4.800781-7.800781-7.601562-13.398438-7.601562h-10.601562c-17.800781 0-32.199219 14.402343-32.199219 32.203124v8.796876c.800781-.199219 1.800781-.398438 2.597657-.398438 1.402343-2.601562 4.601562-4 7.402343-3.398438 6.597657 1.398438 23 3 34.199219-11 2.398438-3 6.800781-3.601562 9.800781-1.203124.199219.203124.398438.402343.597657.402343 2.203124 2.199219 9 7.597657 22.601562 8 3.601562.199219 6.601562 3.199219 6.800781 6.800781zm0 0"/><path d="m244.601562 268h-17.402343c-3.199219 0-6-2-7-5l-5.597657-16.398438c-.203124-.601562-.203124-1-.203124-1.601562v-13.398438c0-2.800781 2.203124-5 5-5 .800781 0 1.601562.199219 2.203124.597657 4.199219 2.199219 9 3.199219 13.796876 3.199219 5.203124 0 10.203124-1.199219 14.800781-3.796876 2.402343-1.402343 5.402343-.402343 6.800781 2 .398438.796876.601562 1.597657.601562 2.398438v13.800781c0 .597657 0 1.199219-.203124 1.597657l-5.597657 16.402343c-1.199219 3.199219-4 5.199219-7.199219 5.199219zm-15.601562-10h13.601562l4.796876-13.800781v-5.597657c-7.597657 2.398438-15.597657 2.398438-23.199219.398438v5.199219zm0 0"/><path d="m256 294h-93c-2.800781 0-5-2.199219-5-5v-.199219l.800781-15.601562c.398438-8.398438 6.398438-15.597657 14.398438-17.597657l27.402343-7 16.398438-8c2.398438-1.203124 5.398438-.203124 6.601562 2.199219 0 .199219.199219.398438.199219.597657l5 14.601562h13.597657l5-14.601562c1-2.597657 3.800781-4 6.402343-3 .199219 0 .398438.203124.597657.203124l16.402343 8 27.398438 7c.601562.199219 1.402343.398438 2 .597657 2.199219.800781 3.601562 3.199219 3.199219 5.601562-.398438 2.398438-2.398438 4.199219-4.796876 4.199219h-13.800781c-2.199219 0-4.199219 1-5.601562 2.601562l-19.800781 23.597657c-.597657 1.199219-2 1.800781-3.398438 1.800781zm-87.800781-10h85.402343l18.398438-21.800781c.800781-.800781 1.601562-1.597657 2.398438-2.398438l-6.199219-1.601562c-.398438 0-.597657-.199219-1-.398438l-11.800781-5.800781-3.796876 11c-1 3-3.800781 5-7 5h-17.402343c-3.199219 0-6-2-7-5l-3.800781-11-11.796876 5.800781c-.402343.199219-.601562.199219-1 .398438l-28 7c-4 1-6.800781 4.402343-7 8.402343zm73.800781-24.199219"/></g></svg>