<svg height="511pt" viewBox="-78 0 511 511.95" width="511pt" xmlns="http://www.w3.org/2000/svg"><path d="m266.476562 46.949219h-174c-24.402343 0-44.203124 19.800781-44.203124 44.199219v371.800781c0 8.199219 2.402343 16.402343 6.800781 23.402343.199219.199219 12 20.796876 37.402343 20.796876h174c25.796876 0 37.199219-20.597657 37.398438-20.796876 4.398438-7 6.800781-15 6.800781-23.402343v-372c-.199219-24.199219-19.800781-44-44.199219-44zm0 0" fill="#6d6c6b"/><path d="m264.476562 67.550781h-50c-4.601562 0-9 2.199219-12 5.800781-10 12.796876-28.402343 15-41.203124 4.796876-1.796876-1.398438-3.398438-3-4.796876-4.796876-2.800781-3.601562-7.203124-5.800781-12-5.800781h-50c-14 0-25.402343 11.398438-25.402343 25.398438v367.800781c0 5.800781 2 11.601562 5.800781 16.199219 4.800781 5.800781 12 9.199219 19.601562 9.199219h170c7.597657 0 14.796876-3.398438 19.597657-9.199219 3.800781-4.597657 5.800781-10.199219 5.800781-16.199219v-367.800781c0-14-11.398438-25.398438-25.398438-25.398438zm0 0" fill="#acdef9"/><path d="m232.476562 339.148438-47.203124-7.597657c-2.199219-.402343-4.199219 1.199219-4.597657 3.398438v1.199219l7.597657 47.203124c.402343 2.199219 2.402343 3.796876 4.601562 3.398438.800781-.199219 1.601562-.601562 2.199219-1.199219l12.800781-12.800781 21.398438 21.398438c4 3.800781 10.203124 3.800781 14.203124 0 3.796876-3.796876 3.796876-10.199219 0-14l-21.402343-21.398438 12.800781-12.800781c1.601562-1.597657 1.601562-4.199219 0-5.800781-.800781-.398438-1.601562-.796876-2.398438-1zm0 0" fill="#e9e9ea"/><path d="m180.476562 336.148438c-.402343-2.199219 1.199219-4.199219 3.398438-4.597657h1.199219l42.601562 6.800781c.199219-1 .398438-2 .398438-3v-16.800781c0-6.402343-5.199219-11.601562-11.597657-11.601562h-78.601562c-6.398438 0-11.601562 5.199219-11.601562 11.601562v16.800781c0 6.398438 5.203124 11.597657 11.601562 11.597657h44.199219zm0 0" fill="#6dcc6d"/><path d="m94.875 129.550781h167.199219c2.402343 0 4.199219 2 4.199219 4.199219v146.800781c0 2.398438-2 4.199219-4.199219 4.199219h-167.199219c-2.398438 0-4.199219-2-4.199219-4.199219v-146.601562c0-2.398438 1.800781-4.398438 4.199219-4.398438zm0 0" fill="#ea4647"/><path d="m208.476562 193.949219c-.601562 0-1.203124 0-1.800781.199219v1.800781 19.402343 1.796876c6.398438 1 12.398438-3.199219 13.398438-9.597657 1-6.402343-3.199219-12.402343-9.597657-13.402343-.800781-.199219-1.402343-.199219-2-.199219zm0 0" fill="#f9d0b4"/><path d="m150.476562 215.351562v-19.402343c0-.597657 0-1.199219 0-1.800781-6.402343-1-12.402343 3.203124-13.601562 9.601562s3.199219 12.398438 9.601562 13.601562c1.199219.199219 2.597657.199219 4 0 0-.800781 0-1.402343 0-2zm0 0" fill="#f9d0b4"/><path d="m182.675781 181.148438c-10.199219 13-25.402343 11-30.402343 10-.796876-.199219-1.597657.402343-1.796876 1.203124v.199219 22.597657c0 15.402343 12.597657 28 28 28 15.398438 0 28-12.597657 28-28v-24.796876c0-.203124 0-.203124 0-.402343 0-.800781-.601562-1.398438-1.402343-1.398438-11.597657-.402343-17.800781-5-20.199219-7.199219-.398438-.800781-1.398438-.800781-2.199219-.203124.199219 0 .199219 0 0 0zm0 0" fill="#f9d0b4"/><path d="m148.675781 193.949219c.597657 0 1.199219 0 1.800781.199219v-1.398438c0-.800781.597657-1.398438 1.597657-1.398438h.199219c5 1 20.203124 2.796876 30.402343-10 .597657-.601562 1.398438-.800781 2.199219-.203124 0 0 0 0 .199219.203124 2.402343 2.398438 8.601562 7 20.199219 7.199219.800781 0 1.402343.597657 1.402343 1.398438v.402343 3.597657c3.597657-.597657 7.398438.601562 10 3.199219v-21c0-8.796876-7.199219-16-16-16-2.800781 0-5.800781.800781-8.199219 2.203124-2.800781-4.800781-8.203124-7.800781-13.800781-7.800781h-8.199219c-16 0-29 13-29 29v13c2-1.800781 4.597657-2.601562 7.199219-2.601562zm0 0" fill="#6d6c6b"/><path d="m178.476562 243.351562c-4.402343 0-8.601562-1-12.601562-3v10.398438l4.398438 12.800781c.203124.800781 1 1.199219 1.800781 1.199219h13.601562c.800781 0 1.398438-.398438 1.800781-1.199219l4.398438-12.800781v-10.800781c-4 2.199219-8.601562 3.402343-13.398438 3.402343zm0 0" fill="#f9d0b4"/><path d="m205.074219 257.351562-13.199219-6.402343-4.398438 12.800781c-.203124.800781-1 1.199219-1.800781 1.199219h-13.601562c-.800781 0-1.398438-.398438-1.800781-1.199219l-4.398438-12.800781-13.199219 6.402343-21.800781 5.398438c-4.800781 1.199219-8 5.199219-8.398438 10.199219l-.601562 12.199219h113.800781l-.601562-12.199219c-.199219-4.800781-3.597657-9-8.398438-10.199219zm0 0" fill="#e9e9ea"/><path d="m136.476562 446.949219c0 10.273437-8.328124 18.601562-18.601562 18.601562s-18.601562-8.328125-18.601562-18.601562c0-10.273438 8.328124-18.597657 18.601562-18.597657s18.601562 8.324219 18.601562 18.597657zm0 0" fill="#55acd5"/><path d="m198.675781 446.949219c0 10.273437-8.328125 18.601562-18.601562 18.601562-10.273438 0-18.597657-8.328125-18.597657-18.601562 0-10.273438 8.324219-18.597657 18.597657-18.597657 10.273437 0 18.601562 8.324219 18.601562 18.597657zm0 0" fill="#55acd5"/><path d="m261.074219 446.949219c0 10.273437-8.328125 18.601562-18.597657 18.601562-10.273437 0-18.601562-8.328125-18.601562-18.601562 0-10.273438 8.328125-18.597657 18.601562-18.597657 10.269532 0 18.597657 8.324219 18.597657 18.597657zm0 0" fill="#55acd5"/><g fill="#231f20"><path d="m266.476562 511.949219h-174c-24.800781 0-38-17.597657-41.601562-23 .199219.199219.199219.402343.398438.601562-.199219-.199219-.398438-.601562-.597657-.800781-4.800781-7.800781-7.402343-16.800781-7.402343-26v-371.800781c0-27 22-49 49.203124-49h174c27.199219 0 49.199219 22 49.199219 49.199219v371.800781c0 9.199219-2.601562 18.199219-7.402343 26 0 0 0 .199219-.199219.199219-9 14-24.800781 22.800781-41.597657 22.800781zm-207.203124-28.597657s.203124.199219.203124.199219c7.199219 11.398438 19.597657 18.199219 33.199219 18.398438h174c13.398438 0 26-7 33.199219-18.398438 0 0 .199219-.199219.199219-.199219 3.800781-6.203124 5.800781-13.203124 5.800781-20.601562v-371.800781c0-21.597657-17.601562-39.199219-39.199219-39.199219h-174c-21.601562 0-39.199219 17.601562-39.199219 39.199219v371.800781c-.203124 7.199219 1.796876 14.398438 5.796876 20.601562zm244.601562 2.796876"/><path d="m264.476562 491.148438h-170c-9 0-17.601562-4-23.402343-11-4.597657-5.398438-7-12.398438-7-19.398438v-367.800781c0-16.800781 13.601562-30.398438 30.402343-30.398438h50c6.199219 0 12 2.800781 15.796876 7.800781 8.402343 10.597657 23.601562 12.398438 34.203124 4 1.597657-1.203124 2.796876-2.601562 4-4 3.796876-4.800781 9.597657-7.800781 15.796876-7.800781h50c16.800781 0 30.402343 13.597657 30.402343 30.398438v367.800781c.199219 16.800781-13.402343 30.398438-30.199219 30.398438zm-170-418.597657c-11.203124 0-20.402343 9.199219-20.402343 20.398438v367.800781c0 4.800781 1.601562 9.199219 4.601562 13 3.800781 4.800781 9.597657 7.398438 15.597657 7.398438h170c11.203124 0 20.402343-9.199219 20.402343-20.398438v-367.800781c0-11.199219-9.199219-20.398438-20.402343-20.398438h-50c-3.199219 0-6 1.398438-8 4-11.796876 14.800781-33.398438 17.398438-48.199219 5.597657-2.199219-1.597657-4-3.597657-5.597657-5.597657-2-2.402343-4.800781-4-8-4zm0 0"/><path d="m261.273438 92.148438h-20.398438c-2.800781 0-5-2.199219-5-5 0-2.796876 2.199219-5 5-5h20.398438c2.800781 0 5 2.203124 5 5 0 2.800781-2.199219 5-5 5zm0 0"/><path d="m97.675781 92.148438c-1.402343 0-2.601562-.597657-3.601562-1.398438-.199219-.199219-.398438-.398438-.597657-.800781-.203124-.199219-.402343-.597657-.402343-.800781-.199219-.199219-.199219-.597657-.199219-1-.199219-.597657-.199219-1.398438 0-2 0-.398438.199219-.597657.199219-1 .199219-.199219.199219-.597657.402343-.796876.199219-.203124.398438-.601562.597657-.800781 1.199219-1.199219 2.800781-1.601562 4.601562-1.402343.597657.203124 1.199219.402343 1.800781.800781.199219.199219.597657.402343.796876.601562.203124.199219.402343.398438.601562.800781.398438.597657.601562 1.199219.800781 1.796876.199219.601562.199219 1.402343 0 2 0 .402343-.199219.601562-.199219 1-.203124.402343-.203124.601562-.402343.800781s-.398438.601562-.597657.800781c-.203124.199219-.402343.398438-.800781.601562-.199219.199219-.601562.398438-.800781.398438-.398438.199219-.601562.199219-1 .199219-.601562.199219-.800781.199219-1.199219.199219zm0 0"/><path d="m116.273438 92.148438c-2.796876 0-5-2.199219-5-5 0-.398438 0-.597657 0-1 .203124-.597657.402343-1.199219.800781-1.796876.199219-.203124.402343-.601562.601562-.800781s.398438-.402343.800781-.601562c.199219-.199219.597657-.398438.796876-.398438.402343-.199219.601562-.199219 1-.199219.601562-.203124 1.402343-.203124 2 0 .402343 0 .601562.199219 1 .199219.402343.199219.601562.199219.800781.398438s.601562.402343.800781.601562c2 2 2 5.199219 0 7-1 1-2.398438 1.597657-3.601562 1.597657zm0 0"/><path d="m134.675781 92.148438c-1.402343 0-2.601562-.597657-3.601562-1.398438-.199219-.199219-.398438-.398438-.597657-.800781-.203124-.199219-.402343-.597657-.402343-.800781-.199219-.199219-.199219-.597657-.199219-1-.199219-.597657-.199219-1.398438 0-2 .199219-.597657.398438-1.199219.800781-1.796876.199219-.203124.398438-.601562.597657-.800781 2-1.800781 5-1.800781 7 0 .203124.199219.402343.398438.601562.800781.199219.199219.398438.597657.398438.796876.203124.402343.203124.601562.203124 1 .199219.601562.199219 1.402343 0 2 0 .402343-.203124.601562-.203124 1-.199219.402343-.199219.601562-.398438.800781s-.398438.601562-.601562.800781c-1 .800781-2.199219 1.398438-3.597657 1.398438zm0 0"/><path d="m117.875 470.351562c-13 0-23.601562-10.601562-23.601562-23.601562s10.601562-23.601562 23.601562-23.601562 23.601562 10.601562 23.601562 23.601562c-.203124 13.199219-10.601562 23.601562-23.601562 23.601562zm0-37c-7.398438 0-13.601562 6-13.601562 13.597657 0 7.402343 6 13.601562 13.601562 13.601562 7.398438 0 13.601562-6 13.601562-13.601562-.203124-7.398438-6.203124-13.597657-13.601562-13.597657zm0 0"/><path d="m180.074219 470.351562c-13 0-23.597657-10.601562-23.597657-23.601562s10.597657-23.601562 23.597657-23.601562 23.601562 10.601562 23.601562 23.601562c0 13.199219-10.601562 23.601562-23.601562 23.601562zm0-37c-7.398438 0-13.597657 6-13.597657 13.597657 0 7.402343 6 13.601562 13.597657 13.601562 7.402343 0 13.601562-6 13.601562-13.601562 0-7.398438-6.199219-13.597657-13.601562-13.597657zm0 0"/><path d="m242.476562 470.351562c-13 0-23.601562-10.601562-23.601562-23.601562s10.601562-23.601562 23.601562-23.601562 23.597657 10.601562 23.597657 23.601562c-.199219 13.199219-10.597657 23.601562-23.597657 23.601562zm0-37c-7.402343 0-13.601562 6-13.601562 13.597657 0 7.601562 6 13.601562 13.601562 13.601562 7.398438 0 13.597657-6 13.597657-13.601562-.199219-7.398438-6.199219-13.597657-13.597657-13.597657zm0 0"/><path d="m262.074219 289.949219h-167.199219c-5.199219 0-9.199219-4.199219-9.199219-9.199219v-146.800781c0-5.199219 4.199219-9.199219 9.199219-9.199219h167.199219c5.199219 0 9.199219 4.199219 9.199219 9.199219v146.800781c0 5-4.199219 9.199219-9.199219 9.199219zm-166.398438-10h165.800781v-145.398438h-165.800781zm166.398438-145.398438"/><path d="m208.476562 222.351562c-.800781 0-1.800781 0-2.601562-.203124-2.601562-.398438-4.398438-2.597657-4.199219-5.199219 0-.597657 0-1 0-1.597657v-19.402343c0-.597657 0-1 0-1.597657-.199219-2.601562 1.597657-4.800781 4.199219-5.203124 9.199219-1.398438 17.800781 4.800781 19.199219 13.800781 1.402343 9-4.800781 17.800781-13.800781 19.199219-1 .203124-2 .203124-2.796876.203124zm3.199219-22.601562v11.800781c3.199219-1.800781 4.398438-5.800781 2.800781-9.199219-.800781-1-1.601562-2-2.800781-2.601562zm0 0"/><path d="m148.675781 222.351562c-9.199219 0-16.800781-7.402343-16.800781-16.800781 0-9.402343 7.398438-16.800781 16.800781-16.800781 1 0 1.800781 0 2.800781.199219 2.597657.402343 4.398438 2.601562 4.199219 5.199219v1.601562 19.398438 1.601562c.199219 2.601562-1.601562 4.800781-4.199219 5.199219-1 .402343-2 .402343-2.800781.402343zm-3.199219-22.601562c-3.203124 1.800781-4.402343 5.800781-2.800781 9.199219.597657 1.199219 1.597657 2.199219 2.800781 2.800781zm0 0"/><path d="m178.476562 248.351562c-18.203124 0-33-14.800781-33-33v-22.601562c0-3.601562 3-6.398438 6.597657-6.398438.402343 0 .800781 0 1.402343.199219 4.796876 1 17.199219 2.199219 25.597657-8.199219 2.199219-2.800781 6.402343-3.203124 9.199219-1 .203124.199219.402343.199219.601562.398438 1.601562 1.601562 6.800781 5.601562 16.800781 5.800781 3.398438.199219 6.199219 3 6.398438 6.398438v25.601562c-.398438 18-15.199219 32.800781-33.597657 32.800781zm-23-51.601562v18.601562c0 12.796876 10.398438 23 23 23 12.796876 0 23-10.402343 23-23v-22.203124c-6.203124-.398438-12.203124-2.597657-17.402343-6.199219-9.398438 9.800781-21.597657 10.402343-28.597657 9.800781zm26-12.199219"/><path d="m216.476562 202.148438c-1.203124 0-2.601562-.597657-3.402343-1.398438-1.398438-1.398438-3.597657-2.199219-5.800781-1.800781-2.796876.402343-5.199219-1.398438-5.796876-4.199219 0-.199219 0-.601562 0-.800781v-.800781c-6.203124-.398438-12.203124-2.597657-17.402343-6.199219-10 10.199219-22.800781 10.402343-29.597657 9.601562-1 1.597657-3 2.597657-5 2.199219-1.800781-.398438-3.800781.199219-5.203124 1.398438-2.199219 1.800781-5.398438 1.402343-7-.796876-.796876-.800781-1-2-1-3.203124v-13c0-18.796876 15.203124-34 34-34h8.203124c5.796876 0 11.398438 2.402343 15.199219 6.601562 2.199219-.800781 4.398438-1 6.597657-1 11.601562 0 21 9.398438 21 21v21c.203124 3.199219-2 5.398438-4.796876 5.398438zm-46.203124-42.597657c-13.199219 0-24 10.800781-24 24v5.597657h.203124c1.398438-2.199219 4.199219-3.199219 6.796876-2.597657 4.800781 1 17.203124 2.199219 25.601562-8.199219 2.199219-2.800781 6.398438-3.203124 9.199219-1 .199219.199219.402343.199219.601562.398438 1.597657 1.601562 6.800781 5.601562 16.800781 5.800781 3.199219 0 5.796876 2.398438 6.199219 5.597657v-12.796876c0-6-4.800781-11-11-11-2 0-4 .597657-5.800781 1.597657-2.398438 1.402343-5.398438.601562-6.800781-1.800781-2-3.398438-5.597657-5.398438-9.398438-5.398438h-8.402343zm11.203124 25.199219"/><path d="m185.675781 269.75h-13.601562c-3 0-5.597657-1.800781-6.398438-4.601562l-4.402343-12.796876c-.199219-.601562-.199219-1-.199219-1.601562v-10.398438c0-2.800781 2.199219-5 5-5 .800781 0 1.601562.199219 2.199219.597657 3.203124 1.601562 6.800781 2.402343 10.203124 2.402343 3.796876 0 7.597657-1 11-2.800781 2.398438-1.402343 5.398438-.402343 6.796876 2 .402343.800781.601562 1.597657.601562 2.398438v10.800781c0 .601562 0 1.199219-.199219 1.601562l-4.402343 12.796876c-1 2.800781-3.597657 4.601562-6.597657 4.601562zm-11.199219-10h9l3.398438-9.800781v-2.597657c-5.199219 1.398438-10.601562 1.398438-15.800781.199219v2.398438zm0 0"/><path d="m235.875 289.949219h-113.800781c-2.800781 0-5-2.199219-5-5v-.199219l.601562-12.199219c.398438-7 5.199219-13 12.199219-14.800781l21.199219-5.398438 12.601562-6.203124c2.398438-1.199219 5.398438-.199219 6.597657 2.203124 0 .199219.203124.398438.203124.597657l3.597657 10.601562h9l3.601562-10.601562c1-2.597657 3.800781-4 6.398438-3 .199219 0 .402343.199219.601562.199219l12.597657 6.203124 21.203124 5.398438c6.796876 1.601562 11.796876 7.601562 12.199219 14.800781l.597657 12.199219c.203124 2.800781-2 5.199219-4.796876 5.199219zm-108.601562-10h103.203124l-.402343-6.800781c-.199219-2.597657-2-5-4.597657-5.597657l-21.800781-5.402343c-.402343 0-.601562-.199219-1-.398438l-8-4-2.601562 7.398438c-1 2.800781-3.597657 4.601562-6.398438 4.601562h-13.601562c-3 0-5.597657-1.800781-6.398438-4.601562l-2.601562-7.398438-8 4c-.398438.199219-.597657.199219-1 .398438l-21.800781 5.402343c-2.597657.597657-4.398438 3-4.597657 5.597657zm0 0"/><path d="m236.074219 402.148438c-4 0-7.800781-1.597657-10.597657-4.398438l-17.800781-17.800781-9.199219 9.199219c-3.601562 3.601562-9.203124 3.601562-12.800781 0-1.402343-1.398438-2.199219-3-2.601562-5l-7.597657-47.199219c-.800781-5 2.597657-9.597657 7.597657-10.398438 1-.199219 2-.199219 2.800781 0l47.199219 7.597657c5 .800781 8.402343 5.402343 7.601562 10.402343-.402343 1.800781-1.199219 3.597657-2.601562 5l-9.199219 9.199219 17.800781 17.800781c5.800781 5.800781 5.800781 15.398438 0 21.199219-2.800781 2.800781-6.601562 4.398438-10.601562 4.398438zm-28.398438-34.199219c1.398438 0 2.597657.601562 3.597657 1.402343l21.402343 21.398438c2 2 5.199219 2 7 0s2-5.199219 0-7l-21.402343-21.398438c-2-2-2-5.203124 0-7l11.402343-11.402343-44.199219-7.199219 7.199219 44.199219 11.398438-11.398438c1-1.199219 2.402343-1.601562 3.601562-1.601562zm24-23.800781"/><path d="m182.273438 351.949219h-44.199219c-9.199219 0-16.597657-7.398438-16.597657-16.597657v-16.800781c0-9.199219 7.398438-16.601562 16.597657-16.601562h78.601562c9.199219 0 16.597657 7.402343 16.597657 16.601562v16.800781c0 1.398438-.199219 3-.597657 4.398438-.601562 2.398438-3 4-5.601562 3.601562l-41.398438-6.601562 1.597657 9.398438c.402343 2.800781-1.398438 5.203124-4.199219 5.800781-.398438 0-.597657 0-.800781 0zm-44.199219-40c-3.597657 0-6.597657 3-6.597657 6.601562v16.800781c0 3.597657 3 6.597657 6.597657 6.597657h38.199219l-.796876-5c-.800781-5 2.597657-9.597657 7.597657-10.398438 1-.199219 2-.199219 2.800781 0l37.398438 6v-14c0-3.601562-3-6.601562-6.597657-6.601562zm0 0"/></g><path d="m349.476562 37.949219h-3.601562v-3.597657c0-2.800781-2.199219-5-5-5s-5 2.199219-5 5v3.597657h-3.601562c-2.796876 0-5 2.199219-5 5s2.203124 5 5 5h3.601562v3.601562c0 2.800781 2.199219 5 5 5s5-2.199219 5-5v-3.601562h3.601562c2.796876 0 5-2.199219 5-5s-2.203124-5-5-5zm0 0" fill="#ffcd29"/><path d="m307.875 3.949219c0-.398438-.199219-.597657-.199219-1-.199219-.199219-.199219-.597657-.402343-.800781-.199219-.199219-.398438-.597657-.597657-.796876-2-1.800781-5-1.800781-7 0-.199219.199219-.402343.398438-.601562.796876-.199219.203124-.398438.601562-.398438.800781-.199219.402343-.199219.601562-.199219 1 0 .402343-.203124.601562-.203124 1 0 .402343 0 .601562.203124 1 0 .402343.199219.601562.199219 1 .199219.402343.199219.601562.398438.800781s.402343.601562.601562.800781c2 2 5 2 7 0 .199219-.199219.398438-.402343.597657-.800781.203124-.199219.402343-.601562.402343-.800781.199219-.199219.199219-.597657.199219-1 0-.398438 0-.597657.199219-1 0-.398438-.199219-.800781-.199219-1zm0 0" fill="#ea4647"/><path d="m27.675781 372.148438c-6.601562-1.199219-11.800781-6.398438-13.199219-13.199219 0-.199219-.203124-.199219-.402343-.199219s-.199219.199219-.199219.199219c-1.199219 6.601562-6.398438 11.800781-13.199219 13.199219-.199219 0-.199219.203124-.199219.402343s.199219.199219.199219.199219c6.597657 1.199219 11.800781 6.398438 13.199219 13.199219 0 .199219.199219.199219.398438.199219.203124 0 .203124-.199219.203124-.199219 1.199219-6.597657 6.398438-11.800781 13.199219-13.199219.199219 0 .199219-.199219.199219-.398438 0-.203124-.199219-.203124-.199219-.203124zm0 0" fill="#55acd5"/></svg>