<svg height="512" viewBox="0 0 512 512" width="512" xmlns="http://www.w3.org/2000/svg"><g><g><g><path d="m496 32v32h-480v-32a16 16 0 0 1 16-16h448a16 16 0 0 1 16 16z" fill="#57565c"/><path d="m496 64v416a16 16 0 0 1 -16 16h-448a16 16 0 0 1 -16-16v-416z" fill="#83d8f4"/><path d="m72 416v32l32-16z" fill="#e0e0e2"/><path d="m40 392h432v80h-432z" fill="#ff9811"/><circle cx="352" cy="432" fill="#ffda44" r="16"/></g><path d="m39 88h113v96h-113z" fill="#d80027"/><path d="m193 176-41-16v-48l41-16z" fill="#d80027"/><g><circle cx="256.5" cy="280.5" fill="#ffeb99" r="40.5"/><path d="m280.711 312.694a60.818 60.818 0 0 1 46.289 59.039v20.267h-142v-20.267a60.818 60.818 0 0 1 46.289-59.039" fill="#d80027"/></g><path d="m448 136v104h-64l-40 48 8-48h-32v-104z" fill="#ffda44"/></g><path d="m112 136-32 16v-40l32 16z" fill="#e0e0e2"/><g><path d="m480 8h-448a24.032 24.032 0 0 0 -24 24v448a24.032 24.032 0 0 0 24 24h448a24.032 24.032 0 0 0 24-24v-448a24.032 24.032 0 0 0 -24-24zm8 472a8.011 8.011 0 0 1 -8 8h-448a8.011 8.011 0 0 1 -8-8v-408h464zm0-424h-464v-24a8.011 8.011 0 0 1 8-8h448a8.011 8.011 0 0 1 8 8z"/><path d="m107.578 424.845-32-16a8 8 0 0 0 -11.578 7.155v32a8 8 0 0 0 11.578 7.155l32-16a8 8 0 0 0 0-14.31zm-27.578 10.211v-6.112l6.111 3.056z"/><circle cx="40" cy="40" r="8"/><circle cx="65" cy="40" r="8"/><circle cx="89" cy="40" r="8"/><path d="m40 480h432a8 8 0 0 0 8-8v-80a8 8 0 0 0 -8-8h-137v-12.27a68.594 68.594 0 0 0 -39.6-62.3 48.5 48.5 0 1 0 -78.05-.34 68.6 68.6 0 0 0 -40.35 62.64v12.27h-137a8 8 0 0 0 -8 8v80a8 8 0 0 0 8 8zm216.5-232a32.488 32.488 0 0 1 20.77 57.48 7.872 7.872 0 0 0 -2.55 1.92 32.5 32.5 0 1 1 -18.22-59.4zm-63.5 123.73a52.651 52.651 0 0 1 37.29-50.46 48.323 48.323 0 0 0 52.09.22 52.614 52.614 0 0 1 36.62 50.24v12.27h-126zm-145 28.27h416v64h-416z"/><path d="m440 424h-65.38a23.99 23.99 0 0 0 -45.24 0h-193.38a8 8 0 0 0 0 16h193.38a23.99 23.99 0 0 0 45.24 0h65.38a8 8 0 0 0 0-16zm-88 16a8 8 0 1 1 8-8 8.011 8.011 0 0 1 -8 8z"/><path d="m320 248h22.56l-6.45 38.68a8 8 0 0 0 14.04 6.44l37.6-45.12h60.25a8 8 0 0 0 8-8v-104a8 8 0 0 0 -8-8h-128a8 8 0 0 0 -8 8v104a8 8 0 0 0 8 8zm8-104h112v88h-56a8 8 0 0 0 -6.15 2.88l-21.11 25.33 3.15-18.89a8.007 8.007 0 0 0 -7.89-9.32h-24z"/><path d="m344 168h80a8 8 0 0 0 0-16h-80a8 8 0 0 0 0 16z"/><path d="m344 192h80a8 8 0 0 0 0-16h-80a8 8 0 0 0 0 16z"/><path d="m384 208a8 8 0 0 0 -8-8h-32a8 8 0 0 0 0 16h32a8 8 0 0 0 8-8z"/><path d="m196.48 89.38a8 8 0 0 0 -7.45-.81l-29.03 11.61v-12.18a8 8 0 0 0 -8-8h-112a8 8 0 0 0 -8 8v96a8 8 0 0 0 8 8h112a8 8 0 0 0 8-8v-12.18l29.03 11.61a8.078 8.078 0 0 0 2.97.57 8.017 8.017 0 0 0 8-8v-80a7.987 7.987 0 0 0 -3.52-6.62zm-52.48 86.62h-96v-80h96zm40-11.82-24-9.6v-37.16l24-9.6z"/><path d="m124.12 129.14-40-24a8 8 0 0 0 -12.12 6.86v48a8 8 0 0 0 12.12 6.86l40-24a8 8 0 0 0 0-13.72zm-36.12 16.73v-19.74l16.45 9.87z"/></g></g></svg>