<svg height="512" viewBox="0 0 512 512" width="512" xmlns="http://www.w3.org/2000/svg"><g><g><path d="m496 64v416a16 16 0 0 1 -16 16h-448a16 16 0 0 1 -16-16v-416z" fill="#83d8f4"/><path d="m496 32v32h-480v-32a16 16 0 0 1 16-16h448a16 16 0 0 1 16 16z" fill="#57565c"/></g><path d="m200 160h-64v-64a63.955 63.955 0 0 1 64 64z" fill="#d80027"/><path d="m176 184a64 64 0 1 1 -64-64v64z" fill="#e0e0e2"/><path d="m168 256h256v160h-256z" fill="#ff9811"/><path d="m448.456 403.201-11.314 11.314 33.941 33.941-22.627 22.627-33.941-33.941-11.314 11.314-16.971-62.226z" fill="#e0e0e2"/><g><path d="m480 8h-448a24.032 24.032 0 0 0 -24 24v448a24.032 24.032 0 0 0 24 24h448a24.032 24.032 0 0 0 24-24v-448a24.032 24.032 0 0 0 -24-24zm8 472a8.011 8.011 0 0 1 -8 8h-448a8.011 8.011 0 0 1 -8-8v-408h464zm0-424h-464v-24a8.011 8.011 0 0 1 8-8h448a8.011 8.011 0 0 1 8 8z"/><path d="m256 320a8 8 0 0 0 0-16h-32a8 8 0 0 0 -8 8v24a8 8 0 0 0 8 8h24v8h-24a8 8 0 0 0 0 16h32a8 8 0 0 0 8-8v-24a8 8 0 0 0 -8-8h-24v-8z"/><path d="m312 320a8 8 0 0 0 0-16h-32a8 8 0 0 0 -8 8v48a8 8 0 0 0 8 8h32a8 8 0 0 0 0-16h-24v-8h8a8 8 0 0 0 0-16h-8v-8z"/><path d="m328 312v48a8 8 0 0 0 8 8h32a8 8 0 0 0 8-8v-48a8 8 0 0 0 -8-8h-32a8 8 0 0 0 -8 8zm16 8h16v32h-16z"/><path d="m40 472h40a8 8 0 0 0 0-16h-40a8 8 0 0 0 0 16z"/><path d="m112 456h-8a8 8 0 0 0 0 16h8a8 8 0 0 0 0-16z"/><circle cx="40" cy="40" r="8"/><circle cx="65" cy="40" r="8"/><circle cx="89" cy="40" r="8"/><path d="m176 176h-56v-56a8 8 0 0 0 -8-8 72 72 0 1 0 72 72 8 8 0 0 0 -8-8zm-64 64a56 56 0 0 1 -8-111.43v55.43a8 8 0 0 0 8 8h55.43a56.089 56.089 0 0 1 -55.43 48z"/><path d="m136 168h64a8 8 0 0 0 8-8 72.081 72.081 0 0 0 -72-72 8 8 0 0 0 -8 8v64a8 8 0 0 0 8 8zm8-63.43a56.129 56.129 0 0 1 47.43 47.43h-47.43z"/><path d="m477.74 440.8-28.28-28.29 5.65-5.65a8 8 0 0 0 -3.55-13.38l-19.56-5.33v-132.15a8 8 0 0 0 -8-8h-116.69l-53.65-53.66a8.008 8.008 0 0 0 -5.66-2.34h-48a8 8 0 0 0 0 16h44.69l40 40h-116.69a8 8 0 0 0 -8 8v160a8 8 0 0 0 8 8h221.78l6.7 24.56a8 8 0 0 0 13.38 3.55l5.65-5.65 28.29 28.28a8 8 0 0 0 11.31 0l22.63-22.63a8 8 0 0 0 0-11.31zm-88.41-64.29a8 8 0 0 0 -9.82 9.83l5.91 21.66h-209.42v-144h124.69l17.65 17.66a8 8 0 0 0 11.32-11.32l-6.35-6.34h92.69v119.78zm60.13 81.26-28.29-28.28a7.979 7.979 0 0 0 -11.31 0l-1.57 1.56-9.66-35.42 35.42 9.66-1.56 1.57a7.985 7.985 0 0 0 0 11.31l28.28 28.29z"/><path d="m136 272h-64a8 8 0 0 0 0 16h64a8 8 0 0 0 0-16z"/><path d="m136 296h-64a8 8 0 0 0 0 16h64a8 8 0 0 0 0-16z"/><path d="m111 328a8 8 0 0 0 -8-8h-31a8 8 0 0 0 0 16h31a8 8 0 0 0 8-8z"/></g></g></svg>