<svg height="512" viewBox="0 0 512 512" width="512" xmlns="http://www.w3.org/2000/svg"><g><g><g><path d="m160 320h112v24h-112z" fill="#e0e0e2"/><path d="m200 344h32v32h-32z" fill="#57565c"/><g fill="#ffeb99"><rect height="32" rx="16" width="64" x="176" y="376"/><rect height="32" rx="16" width="64" x="176" y="408"/><rect height="32" rx="16" width="64" x="176" y="440"/><path d="m480 384v80h-152l-16 8h-88v-88h32a16 16 0 0 1 16-16h32l24 16z"/></g></g><path d="m200 472h32v24h-32z" fill="#57565c"/><path d="m48 128h336v192h-336z" fill="#57565c"/><circle cx="216" cy="224" fill="#2d2d30" r="64"/><circle cx="216" cy="224" fill="#83d8f4" r="40"/><path d="m312 160h40v24h-40z" fill="#ffda44"/><path d="m72 104h64v24h-64z" fill="#2d2d30"/><path d="m88 80h32v24h-32z" fill="#e0e0e2"/><path d="m352 128h-152v-96a16 16 0 0 1 16-16h120a16 16 0 0 1 16 16z" fill="#83d8f4"/><path d="m80 160h32v128h-32z" fill="#2d2d30"/></g><g><path d="m216 296a72 72 0 1 0 -72-72 72.081 72.081 0 0 0 72 72zm0-128a56 56 0 1 1 -56 56 56.063 56.063 0 0 1 56-56z"/><path d="m216 272a48 48 0 1 0 -48-48 48.054 48.054 0 0 0 48 48zm0-80a32 32 0 1 1 -32 32 32.036 32.036 0 0 1 32-32z"/><path d="m312 192h40a8 8 0 0 0 8-8v-24a8 8 0 0 0 -8-8h-40a8 8 0 0 0 -8 8v24a8 8 0 0 0 8 8zm8-24h24v8h-24z"/><path d="m112 152h-32a8 8 0 0 0 -8 8v128a8 8 0 0 0 8 8h32a8 8 0 0 0 8-8v-128a8 8 0 0 0 -8-8zm-8 128h-16v-112h16z"/><path d="m352 256h-32a8 8 0 0 0 0 16h32a8 8 0 0 0 0-16z"/><path d="m351 280h-16a8 8 0 0 0 0 16h16a8 8 0 0 0 0-16z"/><path d="m272 440a24.027 24.027 0 0 0 24-24v-24a8 8 0 0 0 -16 0v24a8 8 0 0 1 -16 0v-32a8.009 8.009 0 0 1 8-8h29.578l21.984 14.656a8 8 0 0 0 4.438 1.344h152a8 8 0 0 0 0-16h-149.578l-21.985-14.656a8 8 0 0 0 -4.437-1.344h-32a24.027 24.027 0 0 0 -24 24v32a24.027 24.027 0 0 0 24 24z"/><path d="m480 456h-152a8.081 8.081 0 0 0 -3.58.84l-14.31 7.16h-63.49a23.925 23.925 0 0 0 -4.75-24 23.946 23.946 0 0 0 0-32 23.953 23.953 0 0 0 -1.87-33.87v-22.13h32a8 8 0 0 0 8-8v-16h104a8 8 0 0 0 8-8v-192a8 8 0 0 0 -8-8h-24v-88a24.032 24.032 0 0 0 -24-24h-120a24.032 24.032 0 0 0 -24 24v88h-48v-16a8 8 0 0 0 -8-8h-8v-16a8 8 0 0 0 -8-8h-32a8 8 0 0 0 -8 8v16h-8a8 8 0 0 0 -8 8v16h-16a8 8 0 0 0 -8 8v192a8 8 0 0 0 8 8h104v16a8 8 0 0 0 8 8h32v16a23.985 23.985 0 0 0 -17.87 40 23.946 23.946 0 0 0 0 32 23.985 23.985 0 0 0 17.87 40v16a8 8 0 0 0 8 8h32a8 8 0 0 0 8-8v-16h72a8.081 8.081 0 0 0 3.58-.84l14.31-7.16h150.11a8 8 0 0 0 0-16zm-272-424a8.011 8.011 0 0 1 8-8h120a8.011 8.011 0 0 1 8 8v88h-136zm-112 56h16v8h-16zm-16 24h48v8h-48zm-24 200v-176h320v176zm168 176h-16v-8h16zm0-24h-32a8 8 0 0 1 0-16h32a8 8 0 0 1 0 16zm0-32h-32a8 8 0 0 1 0-16h32a8 8 0 0 1 0 16zm0-32h-32a8 8 0 0 1 0-16h32a8 8 0 0 1 0 16zm-16-32v-16h16v16zm-40-32v-8h96v8z"/><path d="m360 424a8 8 0 0 0 0 16h48a8 8 0 0 0 0-16z"/><path d="m432 424a8 8 0 0 0 0 16h8a8 8 0 0 0 0-16z"/></g></g></svg>